<svg width="28" height="29" viewBox="0 0 28 29" fill="none" xmlns="http://www.w3.org/2000/svg">
<circle cx="14" cy="14.584" r="14" fill="white"/>
<circle cx="14" cy="14.584" r="13.5" stroke="black" stroke-opacity="0.2"/>
<path fill-rule="evenodd" clip-rule="evenodd" d="M14.6068 7.81055C11.0159 7.81055 8.12695 10.6995 8.12695 14.2904C8.12695 17.1524 9.98992 19.5824 12.5549 20.4463C12.8789 20.5003 12.9869 20.3113 12.9869 20.1223C12.9869 19.9604 12.9869 19.5554 12.9869 19.0154C11.1779 19.4204 10.7999 18.1514 10.7999 18.1514C10.5029 17.3954 10.0709 17.2064 10.0709 17.2064C9.47693 16.8014 10.1249 16.8014 10.1249 16.8014C10.7729 16.8554 11.1239 17.4764 11.1239 17.4764C11.6909 18.4754 12.6359 18.1784 13.0139 18.0164C13.0679 17.5844 13.2299 17.3144 13.4189 17.1524C11.9879 16.9904 10.4759 16.4234 10.4759 13.9394C10.4759 13.2375 10.7189 12.6435 11.1509 12.2115C11.0969 12.0495 10.8539 11.4015 11.2049 10.4835C11.2049 10.4835 11.7449 10.3215 12.9869 11.1585C13.4999 11.0235 14.0669 10.9425 14.6068 10.9425C15.1468 10.9425 15.7138 11.0235 16.2268 11.1585C17.4688 10.3215 18.0088 10.4835 18.0088 10.4835C18.3598 11.3745 18.1438 12.0225 18.0628 12.2115C18.4678 12.6705 18.7378 13.2375 18.7378 13.9394C18.7378 16.4234 17.2258 16.9634 15.7678 17.1254C16.0108 17.3144 16.1998 17.7194 16.1998 18.3134C16.1998 19.1774 16.1998 19.8794 16.1998 20.0953C16.1998 20.2573 16.3078 20.4733 16.6588 20.4193C19.2238 19.5824 21.0867 17.1524 21.0867 14.2904C21.0867 10.6995 18.1978 7.81055 14.6068 7.81055Z" fill="black"/>
</svg>
