<svg width="28" height="29" viewBox="0 0 28 29" fill="none" xmlns="http://www.w3.org/2000/svg">
<circle cx="14" cy="14.584" r="14" fill="white"/>
<circle cx="14" cy="14.584" r="13.5" stroke="black" stroke-opacity="0.2"/>
<path d="M14.0008 9.03119C15.8095 9.03119 16.0237 9.03797 16.7382 9.07055C17.1678 9.0758 17.5933 9.15469 17.9962 9.30377C18.2884 9.41646 18.5538 9.58909 18.7753 9.81055C18.9967 10.032 19.1694 10.2974 19.282 10.5896C19.4311 10.9925 19.51 11.418 19.5153 11.8476C19.5475 12.5622 19.5546 12.7764 19.5546 14.5851C19.5546 16.3938 19.5479 16.608 19.5153 17.3225C19.51 17.7521 19.4311 18.1776 19.282 18.5805C19.1694 18.8728 18.9967 19.1381 18.7753 19.3596C18.5538 19.581 18.2884 19.7537 17.9962 19.8664C17.5933 20.0154 17.1678 20.0943 16.7382 20.0996C16.024 20.1318 15.8098 20.1389 14.0008 20.1389C12.1917 20.1389 11.9775 20.1322 11.2633 20.0996C10.8337 20.0943 10.4082 20.0154 10.0053 19.8664C9.71307 19.7537 9.44769 19.581 9.22624 19.3596C9.00479 19.1381 8.83216 18.8728 8.71947 18.5805C8.57038 18.1776 8.4915 17.7521 8.48624 17.3225C8.45398 16.608 8.44689 16.3938 8.44689 14.5851C8.44689 12.7764 8.45366 12.5622 8.48624 11.8476C8.4915 11.418 8.57038 10.9925 8.71947 10.5896C8.83216 10.2974 9.00479 10.032 9.22624 9.81055C9.44769 9.58909 9.71307 9.41646 10.0053 9.30377C10.4082 9.15469 10.8337 9.0758 11.2633 9.07055C11.9779 9.03829 12.192 9.03119 14.0008 9.03119ZM14.0008 7.81055C12.162 7.81055 11.9304 7.81829 11.2079 7.85119C10.6456 7.86238 10.0893 7.96883 9.56269 8.16603C9.11092 8.33625 8.70172 8.60299 8.36366 8.94764C8.01869 9.28583 7.75172 9.69526 7.5814 10.1473C7.3842 10.674 7.27775 11.2302 7.26656 11.7925C7.2343 12.5144 7.22656 12.746 7.22656 14.5847C7.22656 16.4234 7.2343 16.6551 7.26721 17.3776C7.27839 17.9399 7.38485 18.4962 7.58205 19.0228C7.75218 19.4748 8.01892 19.8842 8.36366 20.2225C8.70191 20.5672 9.11133 20.834 9.56334 21.0041C10.09 21.2013 10.6463 21.3077 11.2085 21.3189C11.9311 21.3512 12.1617 21.3596 14.0014 21.3596C15.8411 21.3596 16.0717 21.3518 16.7943 21.3189C17.3565 21.3077 17.9128 21.2013 18.4395 21.0041C18.8893 20.8297 19.2978 20.5634 19.6389 20.2221C19.98 19.8808 20.246 19.4721 20.4201 19.0222C20.6173 18.4955 20.7238 17.9392 20.735 17.377C20.7672 16.6551 20.775 16.4234 20.775 14.5847C20.775 12.746 20.7672 12.5144 20.7343 11.7918C20.7231 11.2296 20.6167 10.6733 20.4195 10.1467C20.2493 9.69467 19.9826 9.28525 19.6379 8.947C19.2996 8.60226 18.8902 8.33552 18.4382 8.16539C17.9115 7.96819 17.3553 7.86173 16.793 7.85055C16.0711 7.81829 15.8395 7.81055 14.0008 7.81055Z" fill="black"/>
<path d="M14.0021 11.1074C13.3141 11.1074 12.6416 11.3114 12.0695 11.6937C11.4974 12.0759 11.0515 12.6192 10.7882 13.2549C10.5249 13.8905 10.4561 14.59 10.5903 15.2648C10.7245 15.9396 11.0558 16.5594 11.5423 17.0459C12.0288 17.5325 12.6487 17.8638 13.3235 17.998C13.9983 18.1322 14.6977 18.0633 15.3334 17.8C15.969 17.5367 16.5123 17.0909 16.8946 16.5188C17.2768 15.9467 17.4809 15.2742 17.4809 14.5861C17.4809 13.6635 17.1144 12.7787 16.462 12.1263C15.8096 11.4739 14.9248 11.1074 14.0021 11.1074ZM14.0021 16.8442C13.5555 16.8442 13.119 16.7118 12.7476 16.4636C12.3763 16.2155 12.0869 15.8629 11.916 15.4503C11.7451 15.0376 11.7003 14.5836 11.7875 14.1456C11.8746 13.7076 12.0897 13.3052 12.4055 12.9894C12.7213 12.6736 13.1236 12.4586 13.5616 12.3715C13.9996 12.2843 14.4537 12.329 14.8663 12.5C15.2789 12.6709 15.6315 12.9603 15.8797 13.3316C16.1278 13.703 16.2602 14.1395 16.2602 14.5861C16.2602 15.185 16.0223 15.7594 15.5988 16.1828C15.1754 16.6063 14.601 16.8442 14.0021 16.8442Z" fill="black"/>
<path d="M17.6176 11.7821C18.0665 11.7821 18.4305 11.4181 18.4305 10.9692C18.4305 10.5202 18.0665 10.1562 17.6176 10.1562C17.1686 10.1562 16.8047 10.5202 16.8047 10.9692C16.8047 11.4181 17.1686 11.7821 17.6176 11.7821Z" fill="black"/>
</svg>
