<svg width="28" height="29" viewBox="0 0 28 29" fill="none" xmlns="http://www.w3.org/2000/svg">
<circle cx="14" cy="14.584" r="14" fill="white"/>
<circle cx="14" cy="14.584" r="13.5" stroke="black" stroke-opacity="0.2"/>
<path d="M20.2071 11.5671C19.7881 11.7533 19.3458 11.8697 18.8802 11.9396C19.3458 11.6602 19.7183 11.2179 19.8812 10.6825C19.4389 10.9386 18.9501 11.1248 18.4146 11.2412C17.9956 10.7989 17.3904 10.5195 16.7386 10.5195C15.4815 10.5195 14.4572 11.5438 14.4572 12.8009C14.4572 12.9871 14.4805 13.1501 14.5271 13.313C12.6415 13.2199 10.9421 12.312 9.80141 10.9153C9.61518 11.2645 9.49878 11.6369 9.49878 12.0559C9.49878 12.8474 9.89453 13.5458 10.5231 13.9648C10.1506 13.9415 9.80141 13.8484 9.4755 13.6855V13.7088C9.4755 14.8261 10.267 15.7573 11.3145 15.9668C11.1283 16.0134 10.9188 16.0367 10.7093 16.0367C10.5696 16.0367 10.4067 16.0134 10.267 15.9901C10.5696 16.898 11.4077 17.5731 12.4087 17.5731C11.6172 18.1783 10.6395 18.5508 9.56862 18.5508C9.38239 18.5508 9.19616 18.5508 9.0332 18.5275C10.0575 19.1793 11.2447 19.5518 12.5483 19.5518C16.7618 19.5518 19.0665 16.0599 19.0665 13.0337C19.0665 12.9405 19.0665 12.8242 19.0665 12.731C19.5088 12.4284 19.9045 12.0327 20.2071 11.5671Z" fill="black"/>
</svg>
